<svg width="547" height="900" viewBox="0 0 547 900" fill="none" xmlns="http://www.w3.org/2000/svg">
<path fill-rule="evenodd" clip-rule="evenodd" d="M1073.88 474.338L1069.55 481.534L1065.05 488.621L1060.38 495.594L1055.57 502.449L1050.62 509.184L1045.54 515.795L1040.33 522.28L1035.01 528.637L1029.59 534.865L1024.07 540.963L1018.47 546.929L1012.79 552.763L1007.04 558.466L1001.23 564.035L995.362 569.472L989.441 574.776L983.472 579.948L977.457 584.986L971.399 589.891L965.3 594.662L959.163 599.299L952.989 603.802L946.78 608.17L940.539 612.404L934.267 616.503L927.967 620.467L921.641 624.296L915.294 627.99L908.929 631.551L902.551 634.98L896.166 638.278L889.779 641.447L883.398 644.49L877.03 647.412L870.685 650.215L864.37 652.905L858.093 655.486L851.861 657.964L845.683 660.344L839.565 662.631L833.515 664.832L827.539 666.954L821.644 669.002L815.835 670.984L810.119 672.907L804.501 674.778L798.986 676.604L793.577 678.393L788.279 680.152L783.096 681.889L778.031 683.611L773.085 685.326L768.26 687.042L763.559 688.765L758.982 690.503L754.529 692.262L750.199 694.051L745.993 695.874L741.909 697.739L737.945 699.651L734.098 701.615L730.366 703.638L726.746 705.724L723.234 707.878L719.826 710.102L716.517 712.402L713.302 714.78L710.176 717.238L707.135 719.778L704.17 722.403L701.278 725.114L698.452 727.91L695.684 730.793L692.969 733.762L690.301 736.816L687.672 739.954L685.076 743.174L682.507 746.476L679.957 749.855L677.421 753.31L674.891 756.837L672.363 760.434L669.829 764.096L667.284 767.82L664.722 771.602L662.137 775.438L659.525 779.323L656.881 783.253L654.2 787.223L651.477 791.229L648.709 795.266L645.891 799.329L643.02 803.415L640.093 807.518L637.106 811.634L634.058 815.759L630.945 819.889L627.766 824.019L624.518 828.145L621.201 832.266L617.813 836.379L614.352 840.48L610.819 844.568L607.213 848.643L603.534 852.701L599.78 856.742L595.952 860.766L592.049 864.769L588.07 868.753L584.017 872.714L579.887 876.652L575.681 880.564L571.399 884.45L567.039 888.305L562.602 892.128L558.088 895.914L553.495 899.659L548.823 903.36L544.073 907.009L539.244 910.601L534.337 914.13L529.352 917.588L524.289 920.972L519.151 924.274L513.937 927.489L508.65 930.612L503.291 933.638L497.862 936.563L492.365 939.383L486.802 942.093L481.176 944.69L475.489 947.171L469.743 949.534L463.942 951.775L458.087 953.894L452.182 955.889L446.229 957.758L440.231 959.501L434.191 961.117L428.11 962.606L421.992 963.969L415.84 965.207L409.655 966.319L403.44 967.308L397.196 968.175L390.927 968.922L384.633 969.551L378.317 970.063L371.98 970.462L365.623 970.749L359.248 970.928L352.856 971L346.448 970.969L340.024 970.836L333.585 970.606L327.133 970.279L320.666 969.859L314.187 969.348L307.694 968.748L301.189 968.061L294.671 967.29L288.14 966.435L281.597 965.498L275.042 964.481L268.474 963.385L261.894 962.21L255.303 960.957L248.7 959.626L242.086 958.216L235.462 956.729L228.828 955.163L222.185 953.516L215.535 951.789L208.878 949.98L202.216 948.087L195.551 946.108L188.884 944.041L182.219 941.884L175.557 939.635L168.902 937.291L162.255 934.849L155.621 932.307L149.003 929.661L142.405 926.91L135.833 924.048L129.291 921.071L122.787 917.973L116.329 914.75L109.926 911.393L103.586 907.898L97.3206 904.258L91.1402 900.466L85.0563 896.516L79.0809 892.403L73.2265 888.121L67.5058 883.665L61.932 879.032L56.5181 874.216L51.2776 869.216L46.2237 864.028L41.3696 858.653L36.7283 853.088L32.3128 847.335L28.1353 841.394L24.2081 835.268L20.5427 828.959L17.1501 822.472L14.0405 815.81L11.2234 808.981L8.70704 801.99L6.49902 794.846L4.60567 787.556L3.03224 780.129L1.78278 772.576L0.860115 764.908L0.265778 757.135L0 749.269L0.061669 741.323L0.448319 733.31L1.15612 725.241L2.17987 717.131L3.51302 708.993L5.14767 700.841L7.07458 692.686L9.28324 684.544L11.7619 676.427L14.4976 668.348L17.4763 660.319L20.6827 652.353L24.1009 644.461L27.7136 636.653L31.503 628.941L35.4503 621.333L39.5364 613.838L43.7412 606.465L48.0443 599.22L52.4251 592.109L56.8625 585.138L61.3354 578.311L65.8227 571.631L70.3032 565.1L74.7561 558.719L79.1608 552.489L83.4972 546.409L87.7456 540.476L91.8873 534.688L95.9039 529.041L99.7781 523.531L103.494 518.151L107.035 512.896L110.389 507.757L113.541 502.728L116.48 497.8L119.196 492.964L121.68 488.209L123.925 483.527L125.923 478.907L127.672 474.338L129.167 469.809L130.408 465.31L131.395 460.829L132.13 456.357L132.616 451.882L132.857 447.394L132.861 442.884L132.634 438.341L132.187 433.757L131.529 429.123L130.673 424.431L129.631 419.675L128.416 414.847L127.041 409.942L125.518 404.954L123.859 399.878L122.078 394.709L120.188 389.445L118.2 384.081L116.128 378.615L113.985 373.046L111.782 367.37L109.533 361.587L107.249 355.697L104.943 349.699L102.626 343.594L100.311 337.382L98.0071 331.065L95.7256 324.644L93.4763 318.12L91.2684 311.495L89.1104 304.772L87.0099 297.953L84.9736 291.038L83.0083 284.031L81.1204 276.934L79.3169 269.75L77.6044 262.483L75.9898 255.135L74.4799 247.71L73.0815 240.214L71.8013 232.65L70.6462 225.024L69.6228 217.341L68.7376 209.606L67.9971 201.827L67.4074 194.008L66.9747 186.158L66.7049 178.283L66.6036 170.389L66.676 162.485L66.9274 154.579L67.3624 146.678L67.9855 138.79L68.8007 130.924L69.8117 123.088L71.0219 115.291L72.4342 107.541L74.0511 99.8473L75.8747 92.2183L77.9065 84.6628L80.1478 77.1894L82.5992 69.8069L85.2611 62.5237L88.1332 55.3482L91.2148 48.2886L94.5049 41.3531L98.0017 34.5494L101.703 27.8853L105.607 21.368L109.71 15.0046L114.01 8.80193L118.501 2.76643L123.181 -3.09579L128.045 -8.77896L133.087 -14.2777L138.303 -19.587L143.688 -24.7022L149.235 -29.6192L154.939 -34.3342L160.793 -38.8439L166.791 -43.1454L172.926 -47.2362L179.191 -51.1145L185.579 -54.7786L192.084 -58.2276L198.697 -61.4609L205.413 -64.4782L212.222 -67.2799L219.118 -69.8667L226.094 -72.2398L233.141 -74.4008L240.254 -76.3518L247.424 -78.0951L254.644 -79.6337L261.907 -80.9707L269.207 -82.1098L276.536 -83.0548L283.888 -83.8095L291.256 -84.3778L298.636 -84.7632L306.021 -84.9694L313.406 -85L320.786 -84.8585L328.156 -84.5484L335.511 -84.0731L342.847 -83.4362L350.159 -82.6411L357.444 -81.6915L364.697 -80.5908L371.914 -79.3429L379.092 -77.9515L386.227 -76.4204L393.316 -74.7539L400.356 -72.956L407.344 -71.0313L414.276 -68.9842L421.15 -66.8196L427.964 -64.5425L434.715 -62.158L441.401 -59.6714L448.02 -57.0882L454.571 -54.4136L461.052 -51.6532L467.461 -48.8124L473.797 -45.897L480.061 -42.9125L486.25 -39.8648L492.365 -36.7597L498.406 -33.603L504.372 -30.4009L510.264 -27.1593L516.083 -23.8843L521.829 -20.5823L527.503 -17.2593L533.108 -13.9218L538.643 -10.5759L544.112 -7.22815L549.517 -3.8848L554.859 -0.552231L560.142 2.76326L565.369 6.05543L570.542 9.31807L575.666 12.5451L580.744 15.7305L585.781 18.8685L590.78 21.9534L595.746 24.9796L600.684 27.9419L605.598 30.8352L610.495 33.6548L615.38 36.396L620.257 39.0548L625.134 41.6273L630.015 44.11L634.907 46.4998L639.816 48.7941L644.748 50.9906L649.709 53.0878L654.705 55.0843L659.743 56.9795L664.828 58.7732L669.967 60.4658L675.164 62.0583L680.427 63.5522L685.76 64.9496L691.168 66.2533L696.656 67.4665L702.23 68.5933L707.892 69.638L713.648 70.6058L719.499 71.5023L725.45 72.3337L731.502 73.107L737.658 73.8293L743.918 74.5085L750.283 75.1529L756.753 75.7713L763.328 76.3729L770.006 76.9673L776.785 77.5643L783.663 78.1742L790.636 78.8075L797.7 79.4747L804.85 80.186L812.082 80.9512L819.392 81.7797L826.772 82.6806L834.219 83.6627L841.727 84.7343L849.289 85.9035L856.898 87.1782L864.549 88.5658L872.234 90.0735L879.946 91.7081L887.677 93.4763L895.42 95.3842L903.166 97.4378L910.908 99.6425L918.635 102.004L926.341 104.526L934.015 107.214L941.648 110.072L949.232 113.103L956.757 116.31L964.214 119.696L971.594 123.263L978.886 127.013L986.082 130.948L993.172 135.067L1000.15 139.373L1006.99 143.865L1013.71 148.543L1020.28 153.406L1026.69 158.452L1032.94 163.682L1039.02 169.091L1044.91 174.679L1050.62 180.441L1056.12 186.376L1061.42 192.478L1066.5 198.744L1071.36 205.169L1075.98 211.748L1080.37 218.476L1084.51 225.347L1088.39 232.355L1092.02 239.492L1095.39 246.754L1098.48 254.131L1101.31 261.617L1103.86 269.204L1106.12 276.884L1108.11 284.649L1109.81 292.491L1111.22 300.4L1112.35 308.369L1113.19 316.388L1113.74 324.45L1114 332.544L1113.98 340.663L1113.67 348.797L1113.09 356.937L1112.22 365.075L1111.08 373.203L1109.68 381.311L1108 389.392L1106.07 397.438L1103.88 405.439L1101.44 413.39L1098.77 421.283L1095.85 429.11L1092.71 436.864L1089.35 444.54L1085.78 452.131L1082.01 459.631L1078.04 467.035L1073.88 474.338Z" fill="#A8ADB7" fill-opacity="0.48"/>
</svg>
